<?xml version="1.0" encoding="UTF-8"?>
<svg width="43px" height="33px" viewBox="0 0 43 33" version="1.1" xmlns="http://www.w3.org/2000/svg" xmlns:xlink="http://www.w3.org/1999/xlink">
    <!-- Generator: Sketch 59.1 (86144) - https://sketch.com -->
    <title>Fill 1</title>
    <desc>Created with Sketch.</desc>
    <g id="Page-1" stroke="none" stroke-width="1" fill="none" fill-rule="evenodd">
        <g id="tips" transform="translate(-33.000000, -348.000000)" fill="#09D49E">
            <g id="Main" transform="translate(21.000000, 49.000000)">
                <g id="Tips_list" transform="translate(0.000000, 66.000000)">
                    <g id="Porada_3" transform="translate(0.000000, 210.000000)">
                        <g id="Group-3">
                            <path d="M40.3263597,27 L37,27 L37,37 L48,37 C46.6408964,34.8518426 42.0879216,28.4686382 41.1117788,27 L40.3263597,27 Z M25.3333333,29 L25.3333333,32.6666667 L29,32.6666667 L29,36.3333333 L25.3333333,36.3333333 L25.3333333,40 L21.6666667,40 L21.6666667,36.3333333 L18,36.3333333 L18,32.6666667 L21.6666667,32.6666667 L21.6666667,29 L25.3333333,29 Z M34.9009184,27 L14.2607422,27 L14.2607422,47 L18.1163444,47 C19.109984,45.9181264 20.5881728,44.6210938 23.1313477,44.6210938 C25.6745225,44.6210938 26.7309698,45.9181264 27.7246094,47 L39.6563065,47 C40.6499461,45.9181264 42.0766602,44.6210938 44.1098633,44.6210938 C46.1430664,44.6210938 47.9868292,45.9181264 48.9804687,47 L53,47 L53,42.774177 C53,41.9090305 53,41.9090305 52.4497879,41.4491462 L49.8380904,39.2501588 L34.9009184,39.2501588 L34.9009184,27 Z M47,50 C47,51.6546763 45.6546763,53 44,53 C42.3429257,53 41,51.6546763 41,50 C41,48.3429257 42.3429257,47 44,47 C45.6546763,47 47,48.3429257 47,50 Z M23,47 C24.6546763,47 26,48.3429257 26,50 C26,51.6546763 24.6546763,53 23,53 C21.3429257,53 20,51.6546763 20,50 C20,48.3429257 21.3429257,47 23,47 L23,47 Z M38.875,24.7777778 L41.0608333,24.7777778 C41.9369583,24.7777778 42.7575417,25.2008889 43.261,25.9137778 C44.8054167,28.0968889 49.625,35.4444444 49.625,35.4444444 C49.625,35.4444444 52.119,37.5937778 53.2083333,38.5217778 C54.715125,39.8071111 55,40.8328889 55,42.5555556 L55,47 C55,48.472 53.796,49.6666667 52.3125,49.6666667 L49.625,49.6666667 C49.625,52.6106667 47.0275469,55.6674805 44.0605469,55.6674805 C41.0935469,55.6674805 38.875,52.6106667 38.875,49.6666667 L28.5205078,49.6666667 C28.5205078,52.6106667 25.861043,55.6674805 22.894043,55.6674805 C19.927043,55.6674805 17.375,52.6106667 17.375,49.6666667 L13.7916667,49.6666667 C12.8044583,49.6666667 12,48.872 12,47.8888889 L12,26.5555556 C12,25.5742222 12.8026667,24.7777778 13.7916667,24.7777778 L35.2916667,24.7777778 L35.2916667,23 L38.875,23 L38.875,24.7777778 Z" id="Fill-1"></path>
                        </g>
                    </g>
                </g>
            </g>
        </g>
    </g>
</svg>