<?xml version="1.0" encoding="UTF-8"?>
<svg width="34px" height="39px" viewBox="0 0 34 39" version="1.1" xmlns="http://www.w3.org/2000/svg" xmlns:xlink="http://www.w3.org/1999/xlink">
    <!-- Generator: Sketch 59.1 (86144) - https://sketch.com -->
    <title>Group 9</title>
    <desc>Created with Sketch.</desc>
    <defs>
        <polygon id="path-1" points="0 0.049683009 32.9411463 0.049683009 32.9411463 33 0 33"></polygon>
        <polygon id="path-3" points="0.0187952803 0.035 5.25035828 0.035 5.25035828 6.98330886 0.0187952803 6.98330886"></polygon>
    </defs>
    <g id="Page-1" stroke="none" stroke-width="1" fill="none" fill-rule="evenodd">
        <g id="tips" transform="translate(-36.000000, -137.000000)">
            <g id="Main" transform="translate(21.000000, 49.000000)">
                <g id="Tips_list" transform="translate(0.000000, 66.000000)">
                    <g id="Porada_1">
                        <g id="Group-3">
                            <g id="Group-9" transform="translate(15.000000, 22.000000)">
                                <g id="Group-3" transform="translate(0.000000, 6.000000)">
                                    <mask id="mask-2" fill="white">
                                        <use xlink:href="#path-1"></use>
                                    </mask>
                                    <g id="Clip-2"></g>
                                    <path d="M26.9906506,8.06812145 C27.1788576,7.21843317 26.466683,6.61373491 25.4672192,6.85362269 C22.1666431,7.64570499 18.8661494,8.43828105 15.5659848,9.23209152 C14.4513913,9.50012394 13.3377853,9.77227107 12.1888751,10.0509195 C12.534511,11.7256077 11.7964137,13.1445254 11.1559175,14.6721539 C11.3537529,14.5782561 11.4616406,14.5314307 11.5655783,14.4771165 C15.6305858,12.3531015 19.6956756,10.229498 23.7592017,8.10276733 C24.3134536,7.81276234 24.8895135,7.55485212 25.5205459,7.65220623 C26.0211419,7.72939825 26.503304,7.92567007 26.9906506,8.06812145 M20.7424586,20.3376202 C20.4870172,19.8349668 20.2523963,19.3737898 20.000082,18.8774731 C20.5271768,18.6040092 21.0307354,18.3353185 21.5408776,18.0797125 C24.2959249,16.6998845 27.053112,15.3243359 29.8083239,13.9448372 C30.4628102,13.6171414 30.7654885,13.049311 30.5957978,12.4904506 C30.3707229,11.74972 29.6204461,11.4402112 28.8679474,11.8100416 C27.5033439,12.4804107 26.1482865,13.1697898 24.7910072,13.8550541 C22.7371893,14.8921264 20.6864985,15.9356177 18.6294711,16.9661888 C18.4281793,17.0670815 18.1886207,17.1575229 17.9719399,17.1470716 C17.5967603,17.1290491 17.3412367,16.8931115 17.2583663,16.5145579 C17.1709698,16.1153484 17.3278227,15.8060042 17.6777379,15.6199369 C18.3183988,15.2790741 18.9704985,14.95969 19.6184012,14.632488 C21.6843988,13.5888322 23.748915,12.5421314 25.8184511,11.5054706 C26.2758426,11.276281 26.5027279,10.9192885 26.4811668,10.4208322 C26.4588651,9.90492943 26.1716581,9.55896434 25.7075185,9.3500192 C25.3403214,9.18469002 25.016082,9.31208155 24.6910197,9.48259526 C22.1680421,10.8061339 19.6439948,12.127286 17.1197828,13.4481913 C14.789703,14.6674631 12.4592117,15.8861589 10.1283913,17.1040317 C9.63849352,17.3599668 9.2757404,17.3533833 8.99009701,17.0742411 C8.6544187,16.7462985 8.6946606,16.3799244 8.86328155,15.977917 C9.36651097,14.7785603 9.86093491,13.5751713 10.3409574,12.3663509 C10.8359574,11.1197574 10.6349948,9.94862768 9.90397481,8.84950549 C9.85328155,8.77338329 9.7879399,8.70697182 9.70869052,8.61085212 C9.65273042,8.69405162 9.61207706,8.74474489 9.58179277,8.80095187 C8.21167556,11.345902 6.84007706,13.8900292 5.47423915,16.4372835 C4.84921421,17.6031464 4.66791995,18.904301 4.3788202,20.1688347 C4.10428653,21.370084 3.88719426,22.5844182 3.641299,23.7921688 C3.52806209,24.3484781 3.13074539,24.6528845 2.66471297,24.5506751 C2.1764611,24.4435279 1.92439377,24.0292586 2.03598479,23.4832362 C2.42268554,21.5916202 2.77194239,19.6904581 3.22645362,17.8150541 C3.43350599,16.9611688 3.78062319,16.1206152 4.19028404,15.3401364 C5.64837382,12.5628696 7.16011945,9.81382968 8.65252594,7.05458529 C9.13189002,6.16835835 9.55866808,6.08507656 10.3243339,6.7244207 C11.5576781,5.75507656 11.9503863,3.82947307 11.1859549,2.37977731 C11.1241519,2.43104663 11.0611968,2.47194688 11.0121494,2.52552045 C9.09576284,4.61982718 7.18628903,6.72055287 5.2626606,8.80819377 C4.43058329,9.71112643 3.91945362,10.8064631 3.37886259,11.8808147 C2.76972045,13.0914456 2.21011945,14.327094 1.63784514,15.5559943 C1.46741372,15.9220392 1.22291746,16.1776451 0.800994763,16.1741888 C0.225757855,16.1694157 -0.178718454,15.5655404 0.0796032419,15.0282411 C1.06408953,12.9802661 2.0400995,10.9263658 3.10309451,8.91896185 C3.46123915,8.24266758 4.04100224,7.67319127 4.56636883,7.09770748 C6.58216683,4.88967007 8.61508204,2.69735087 10.6459399,0.503056608 C11.2626531,-0.163362344 11.7653888,-0.0866640898 12.2429424,0.677520449 C13.1836481,2.18276484 13.5843389,3.78034339 12.9935484,5.49724863 C12.7662516,6.15774239 12.3513239,6.75684464 11.9946606,7.36804414 C11.8517978,7.61270499 11.6353638,7.81449052 11.4599125,8.02664514 C11.5397379,8.44149052 11.7645658,8.46667257 12.1195833,8.3801813 C16.522491,7.30648803 20.9290197,6.24752544 25.3343963,5.18403666 C26.3899848,4.92917132 27.5263863,5.38409401 28.1713264,6.32315387 C28.8439175,7.30245561 28.83289,8.61076983 28.1696805,9.61624115 C28.0394087,9.81382968 27.9942292,10.0674606 27.871117,10.3998471 C28.2778152,10.2629095 28.5385234,10.1478621 28.8112466,10.0881988 C29.837703,9.86345312 30.7535559,10.0942062 31.4852342,10.8603658 C32.2233314,11.633109 32.4649474,12.5709344 32.1629274,13.595498 C32.0651618,13.9270616 31.7818227,14.2039818 31.6349274,14.4274107 C31.9884636,14.9256202 32.4272566,15.3902536 32.68492,15.9397324 C33.1801668,16.9955678 32.9456282,18.0287723 32.0840072,18.8225005 C31.6677628,19.2058272 31.1713638,19.5019219 30.704097,19.8427848 C30.8877778,20.0462162 31.1129349,20.2485778 31.2815559,20.4902761 C31.9473988,21.4448072 31.8725933,22.9084107 31.0338501,23.7152237 C30.5593414,24.1714631 29.9747229,24.5419519 29.3852491,24.8450416 C24.9521394,27.1246751 20.5063564,29.3796202 16.0627953,31.6388446 C13.5987404,32.8916925 10.9614561,33.131498 8.25677282,32.9428796 C7.73840125,32.9067524 7.22167556,32.8276676 6.70832394,32.7433983 C6.1264212,32.6478546 5.83460574,32.2549818 5.93278279,31.7434406 C6.02231895,31.2768322 6.44950848,31.0366152 7.01231895,31.1192387 C9.21780524,31.4433958 11.4226332,31.4773833 13.5736406,30.8327723 C14.536319,30.5442486 15.4647628,30.107513 16.3653913,29.6522611 C20.5334312,27.5456102 24.6878102,25.4115554 28.8420247,23.2777474 C29.1800072,23.1041888 29.5091843,22.8906352 29.7925234,22.6393085 C30.2245683,22.2558995 30.2269549,21.9552786 29.8963788,21.3525554 C29.6238202,20.8555803 29.3581743,20.7117299 28.8180771,20.8628222 C28.4123663,20.976306 28.0139798,21.1362037 27.6355085,21.322518 C25.8784436,22.1875953 24.1347105,23.0799943 22.3714736,23.932316 C22.1282117,24.0499145 21.7878426,24.0664556 21.5197279,24.0070392 C21.2040471,23.937089 21.0575633,23.6377848 21.0485933,23.3077848 C21.0390471,22.959104 21.1994387,22.7007 21.5093589,22.5440117 C22.2303389,22.1794481 22.9542815,21.8204805 23.6766606,21.4585504 C25.7213439,20.4340691 27.7705534,19.4181464 29.8067603,18.3769594 C30.2285185,18.1611838 30.635299,17.8884606 30.988506,17.5739319 C31.3831893,17.2224531 31.3752067,16.8764057 31.0851195,16.3461838 C30.8083638,15.8403209 30.4913663,15.6635529 29.9836107,15.7756377 C29.7600172,15.8250965 29.5419374,15.9206401 29.3357903,16.024084 C26.5447803,17.4244032 23.7563214,18.8298247 20.9671219,20.2336825 C20.9080347,20.2633908 20.8470546,20.2893958 20.7424586,20.3376202" id="Fill-1" fill="white" mask="url(#mask-2)"></path>
                                </g>
                                <path d="M30.9980709,4.82500375 C30.4765387,5.62499721 29.9505635,6.34854425 29.7491789,7.20538448 C29.6481021,7.63532729 29.9014349,7.98499744 30.2872013,8.23292123 C30.7230361,8.51309463 31.2864345,8.51301655 31.7236364,8.2330774 C32.1101718,7.98554404 32.364957,7.63462451 32.2619151,7.20608726 C32.0563439,6.35143344 31.5475424,5.61976543 30.9980709,4.82500375 M31.0005487,2 C32.1192285,3.47442426 33.2554237,4.87287061 33.8659001,6.54305705 C34.253888,7.60471748 33.7744782,8.80131092 32.7568752,9.47285253 C31.7051811,10.1669611 30.3298364,10.1763314 29.2878826,9.49666883 C28.2402898,8.81318003 27.7127767,7.60448322 28.1597188,6.54805457 C28.5463396,5.6346799 29.0741091,4.76558013 29.6040145,3.91030161 C30.0063565,3.26085841 30.5098607,2.66381107 31.0005487,2" id="Fill-4" fill="white"></path>
                                <g id="Group-8" transform="translate(21.000000, 0.000000)">
                                    <mask id="mask-4" fill="white">
                                        <use xlink:href="#path-3"></use>
                                    </mask>
                                    <g id="Clip-7"></g>
                                    <path d="M2.72367375,2.97765682 C2.66662375,2.97503182 2.60948625,2.97240682 2.55243625,2.96978182 C2.30568625,3.45278182 2.04204875,3.92941818 1.81813625,4.42100909 C1.66361125,4.76019091 1.82609875,5.04512273 2.13681125,5.24478182 C2.46686125,5.45685 2.82456125,5.45303182 3.14857375,5.23444091 C3.45368625,5.02857727 3.60418625,4.74261136 3.44572375,4.40327045 C3.22102375,3.92194091 2.96587375,3.45230455 2.72367375,2.97765682 M2.63284875,0.0349522727 C3.58624875,1.26894091 4.52398625,2.44708864 5.08652375,3.82402045 C5.49261125,4.81817955 5.12502375,5.88106591 4.19174875,6.50740682 C3.24132375,7.14520227 2.00144875,7.14162273 1.06239875,6.49849773 C0.13437375,5.86292955 -0.22323875,4.80250909 0.18739875,3.80827045 C0.75072375,2.44382727 1.68452375,1.27442955 2.63284875,0.0349522727" id="Fill-6" fill="white" mask="url(#mask-4)"></path>
                                </g>
                            </g>
                        </g>
                    </g>
                </g>
            </g>
        </g>
    </g>
</svg>