<svg width="33" height="33" viewBox="0 0 33 33" fill="none" xmlns="http://www.w3.org/2000/svg">
<path fill-rule="evenodd" clip-rule="evenodd" d="M26.9907 8.03309C27.1789 7.1834 26.4667 6.5787 25.4672 6.81859C22.1667 7.61067 18.8662 8.40325 15.566 9.19706C14.4514 9.46509 13.3378 9.73724 12.1889 10.0159C12.5345 11.6906 11.7964 13.1095 11.1559 14.6371C11.3538 14.5432 11.4617 14.4964 11.5656 14.4421C15.6306 12.3181 19.6957 10.1945 23.7592 8.06773C24.3135 7.77773 24.8895 7.51982 25.5206 7.61717C26.0212 7.69436 26.5033 7.89064 26.9907 8.03309ZM20.7425 20.3026C20.487 19.7999 20.2524 19.3388 20.0001 18.8424C20.5272 18.569 21.0307 18.3003 21.5409 18.0447C24.2959 16.6649 27.0531 15.2893 29.8083 13.9098C30.4628 13.5821 30.7655 13.0143 30.5958 12.4554C30.3707 11.7147 29.6205 11.4052 28.868 11.775C27.5034 12.4454 26.1483 13.1348 24.791 13.82C22.7372 14.8571 20.6865 15.9006 18.6295 16.9312C18.4282 17.032 18.1886 17.1225 17.972 17.112C17.5968 17.094 17.3412 16.8581 17.2584 16.4795C17.171 16.0803 17.3278 15.771 17.6777 15.5849C18.3184 15.244 18.9705 14.9247 19.6184 14.5975C21.6844 13.5538 23.7489 12.5071 25.8185 11.4704C26.2759 11.2412 26.5027 10.8843 26.4812 10.3858C26.4589 9.86989 26.1717 9.52393 25.7075 9.31498C25.3403 9.14966 25.0161 9.27705 24.691 9.44756C22.1681 10.7711 19.644 12.0923 17.1198 13.4132C14.7897 14.6324 12.4592 15.8511 10.1284 17.069C9.6385 17.3249 9.27575 17.3183 8.99011 17.0392C8.65443 16.7113 8.69467 16.3449 8.86329 15.9429C9.36652 14.7435 9.86095 13.5401 10.341 12.3313C10.836 11.0847 10.635 9.91359 9.90399 8.81447C9.85329 8.73835 9.78795 8.67194 9.7087 8.57582C9.65274 8.65902 9.61209 8.70971 9.5818 8.76592C8.21169 11.3109 6.84009 13.855 5.47425 16.4022C4.84923 17.5681 4.66793 18.8693 4.37883 20.1338C4.1043 21.3351 3.88721 22.5494 3.64131 23.7571C3.52807 24.3134 3.13076 24.6178 2.66472 24.5156C2.17647 24.4085 1.92441 23.9942 2.036 23.4482C2.4227 21.5566 2.77195 19.6554 3.22647 17.78C3.43352 16.9261 3.78063 16.0856 4.1903 15.3051C5.64839 12.5278 7.16013 9.7788 8.65254 7.01955C9.1319 6.13332 9.55868 6.05004 10.3243 6.68939C11.5577 5.72004 11.9504 3.79444 11.186 2.34474C11.1242 2.39601 11.0612 2.43691 11.0122 2.49049C9.09577 4.58479 7.1863 6.68552 5.26267 8.77316C4.43059 9.67609 3.91947 10.7714 3.37887 11.8458C2.76973 13.0564 2.21013 14.2921 1.63786 15.521C1.46743 15.887 1.22293 16.1426 0.801006 16.1392C0.225769 16.1344 -0.178707 15.5305 0.0796149 14.9932C1.0641 12.9452 2.04011 10.8913 3.10311 8.88393C3.46125 8.20763 4.04101 7.63816 4.56638 7.06267C6.58218 4.85464 8.61509 2.66232 10.646 0.468022C11.2627 -0.198397 11.7654 -0.121699 12.243 0.642486C13.1837 2.14773 13.5844 3.74531 12.9936 5.46221C12.7663 6.12271 12.3513 6.72181 11.9947 7.33301C11.8518 7.57767 11.6354 7.77946 11.4599 7.99161C11.5397 8.40646 11.7646 8.43164 12.1196 8.34515C16.5225 7.27145 20.929 6.21249 25.3344 5.149C26.39 4.89414 27.5264 5.34906 28.1713 6.28812C28.8439 7.26742 28.8329 8.57574 28.1697 9.58121C28.0394 9.7788 27.9942 10.0324 27.8711 10.3648C28.2778 10.2279 28.5385 10.1128 28.8113 10.0532C29.8377 9.82842 30.7536 10.0592 31.4852 10.8253C32.2233 11.5981 32.465 12.5359 32.1629 13.5605C32.0652 13.892 31.7818 14.1689 31.6349 14.3924C31.9885 14.8906 32.4273 15.3552 32.6849 15.9047C33.1802 16.9605 32.9456 17.9937 32.084 18.7875C31.6678 19.1708 31.1714 19.4669 30.7041 19.8078C30.8878 20.0112 31.1129 20.2135 31.2816 20.4552C31.9474 21.4098 31.8726 22.8734 31.0339 23.6802C30.5594 24.1364 29.9747 24.5069 29.3853 24.81C24.9522 27.0896 20.5064 29.3446 16.0628 31.6038C13.5988 32.8567 10.9615 33.0965 8.25678 32.9078C7.73841 32.8717 7.22169 32.7926 6.70834 32.7084C6.12643 32.6128 5.83462 32.2199 5.93279 31.7084C6.02233 31.2418 6.44952 31.0016 7.01233 31.0842C9.21782 31.4084 11.4226 31.4423 13.5737 30.7977C14.5363 30.5092 15.4648 30.0725 16.3654 29.6172C20.5334 27.5106 24.6878 25.3765 28.842 23.2427C29.18 23.0692 29.5092 22.8556 29.7925 22.6043C30.2246 22.2209 30.227 21.9202 29.8964 21.3175C29.6238 20.8205 29.3582 20.6767 28.8181 20.8278C28.4124 20.9413 28.014 21.1012 27.6355 21.2875C25.8785 22.1526 24.1347 23.045 22.3715 23.8973C22.1282 24.0149 21.7879 24.0314 21.5197 23.972C21.2041 23.9021 21.0576 23.6028 21.0486 23.2728C21.0391 22.9241 21.1995 22.6657 21.5094 22.509C22.2304 22.1444 22.9543 21.7854 23.6767 21.4235C25.7214 20.399 27.7706 19.3831 29.8068 18.3419C30.2285 18.1261 30.6353 17.8534 30.9885 17.5389C31.3832 17.1874 31.3752 16.8414 31.0851 16.3111C30.8084 15.8053 30.4914 15.6285 29.9836 15.7406C29.76 15.7901 29.5419 15.8856 29.3358 15.989C26.5448 17.3894 23.7563 18.7948 20.9671 20.1986C20.908 20.2284 20.8471 20.2544 20.7425 20.3026Z" fill="#09D49E"/>
</svg>
