<?xml version="1.0" encoding="UTF-8"?>
<svg width="43px" height="31px" viewBox="0 0 43 31" version="1.1" xmlns="http://www.w3.org/2000/svg" xmlns:xlink="http://www.w3.org/1999/xlink">
    <!-- Generator: Sketch 59.1 (86144) - https://sketch.com -->
    <title>Group 5</title>
    <desc>Created with Sketch.</desc>
    <g id="Page-1" stroke="none" stroke-width="1" fill="none" fill-rule="evenodd">
        <g id="tips" transform="translate(-33.000000, -455.000000)" fill="#934CFB">
            <g id="Main" transform="translate(21.000000, 49.000000)">
                <g id="Tips_list" transform="translate(0.000000, 66.000000)">
                    <g id="Porada_4" transform="translate(0.000000, 315.000000)">
                        <g id="Group-3">
                            <g id="Group-5" transform="translate(12.000000, 25.000000)">
                                <path d="M8.73997662,6.96513149 C8.74809936,7.01488137 8.75250136,7.06499937 8.76471167,7.11306637 C9.06776846,8.30495974 9.37082524,9.49685311 9.6779172,10.6876421 C9.69363863,10.7484884 9.73252297,10.8240598 9.78293636,10.8516694 C10.0323831,10.9883501 10.2893237,11.1112523 10.5576885,11.2460397 C10.5510331,11.190242 10.549985,11.1389671 10.5382463,11.0903216 C10.3376408,10.2589307 10.1372974,9.42738209 9.93312843,8.59683268 C9.85604101,8.28324019 9.78555659,7.96665008 9.68336729,7.66105123 C9.53013574,7.20252148 9.17902378,6.95151076 8.73997662,6.96513149 L8.73997662,6.96513149 Z M34.2712138,6.97144226 C33.8357826,6.94183425 33.4593591,7.17659475 33.345274,7.5936838 C33.1196714,8.41850094 32.9197996,9.25047028 32.713482,10.0805464 C32.6181054,10.4642936 32.5325808,10.8504599 32.4368373,11.2603441 C32.6871224,11.1261878 32.9066984,11.0211661 33.1117059,10.8926894 C33.2023137,10.8359451 33.3030881,10.7432294 33.3310199,10.6468851 C33.4647044,10.185831 33.5754881,9.71799288 33.6936085,9.2524161 C33.886196,8.49317834 34.0782071,7.73378281 34.2712138,6.97144226 L34.2712138,6.97144226 Z M37.3636717,5.23766443 C36.7782056,5.21578711 36.4224821,5.451652 36.2748578,5.99211653 C35.9803954,7.07031093 35.7106157,8.1552894 35.4324511,9.23795393 C35.2982949,9.76001206 35.1683311,10.2830694 35.0385769,10.7973443 C35.3151693,10.9357078 35.5678651,11.0621335 35.8361251,11.196395 C36.3452374,9.2105021 36.8518867,7.23397013 37.3636717,5.23766443 L37.3636717,5.23766443 Z M7.96401919,10.7961873 C7.57847729,9.26456433 7.19932878,7.74813981 6.81226715,6.2336611 C6.76510285,6.04917637 6.69163137,5.86705818 6.60264807,5.69861331 C6.40833118,5.33080082 6.07063484,5.23187956 5.63808586,5.22393852 C6.15395842,7.23649444 6.66144622,9.21639215 7.16898642,11.1965528 C7.45354432,11.0532458 7.70079003,10.928766 7.96401919,10.7961873 L7.96401919,10.7961873 Z M22.3413727,31 L20.6591272,31 C20.6591272,30.8866166 20.6591272,30.7848029 20.6591272,30.6830418 C20.6590224,28.9739285 20.6632148,27.2648679 20.6573978,25.5558598 C20.6528386,24.2299152 20.4606703,22.9316854 19.9114159,21.7180725 C18.9165638,19.5197697 17.2373053,18.1837805 14.8462329,17.7786819 C14.7521663,17.7627472 14.6496102,17.7072125 14.5815888,17.639214 C12.9681507,16.0265503 11.3588002,14.4097846 9.74892566,12.7934922 C9.30186057,12.3445863 8.70586111,12.2298882 8.28012476,12.5122424 C7.61033939,12.9563099 7.52591531,13.738582 8.11080495,14.3342132 C9.25579677,15.500285 10.4145186,16.6527886 11.5695198,17.808921 C12.0876982,18.3276134 12.6106454,18.8415727 13.133907,19.3601599 C12.7203285,19.7642067 12.3295986,20.1460607 11.8864114,20.579137 C11.6582935,20.3332275 11.4126723,20.0525562 11.1504912,19.7884506 C9.78325079,18.411494 8.4112415,17.0392705 7.04200966,15.6643123 C6.5151845,15.1353123 6.20169917,14.5080222 6.05721922,13.7646665 C5.88428348,12.8751114 5.63646132,12.0000185 5.41400307,11.1204555 C5.09894559,9.87455247 4.77801878,8.63012197 4.4585593,7.38537593 C4.23914052,6.53037229 4.02124149,5.67505312 3.79474807,4.8219953 C3.75030883,4.65444446 3.68218263,4.49020677 3.60341826,4.33554041 C3.32058971,3.78014039 2.85623104,3.57072814 2.3339651,3.75174195 C1.84927338,3.9197661 1.58305715,4.44545292 1.71784222,5.02267766 C1.97425876,6.12101393 2.24503421,7.21598445 2.5108312,8.31205935 C3.03199664,10.4613485 3.59770614,12.601119 4.05802964,14.7634504 C4.31177354,15.9555016 4.91149373,16.8724033 5.75447686,17.7027424 C7.66049076,19.5800901 9.53930658,21.485363 11.4282365,23.3801706 C12.4708818,24.4260749 13.5134223,25.472137 14.5497267,26.5242995 C14.6266045,26.6024478 14.6950975,26.7306615 14.6958312,26.8361565 C14.7056309,28.168254 14.702539,29.5004568 14.7013861,30.8326069 C14.7013337,30.8832508 14.6880228,30.9338421 14.6789568,30.9984223 L13.0319273,30.9984223 C13.0273157,30.8976604 13.0190357,30.8052077 13.0193502,30.7128075 C13.0227041,29.6876762 13.0220752,28.6624396 13.0361197,27.6373608 C13.0388971,27.4357319 12.9770071,27.2958958 12.8362479,27.1559546 C11.0329473,25.3633288 9.23064248,23.5697039 7.4368796,21.7675069 C6.29953887,20.6248375 5.18819091,19.4559258 4.04377554,18.3205138 C3.23422665,17.517311 2.76153562,16.555971 2.50281327,15.4549526 C1.97698381,13.216892 1.42002591,10.9861939 0.880571205,8.75134127 C0.593393064,7.56155149 0.264186297,6.37886132 0.0460776438,5.17613446 C-0.311899342,3.20228457 1.47384561,1.58630771 3.39400879,2.11067979 C4.07773383,2.29737329 4.60073344,2.73018667 4.96101623,3.34296207 C5.06294351,3.51624519 5.15685286,3.57099109 5.3693018,3.54480141 C6.55097696,3.39933825 7.5565721,3.92797009 8.11221988,4.97098197 C8.20780618,5.15047068 8.30884257,5.22630505 8.52852337,5.22835605 C9.50498146,5.23750666 10.3406803,5.56577168 10.9173424,6.40252669 C11.2307229,6.85726998 11.3565992,7.3834827 11.4826851,7.9128508 C11.9162297,9.73266541 12.3615655,11.5496928 12.8074253,13.3665097 C12.8288064,13.4537035 12.8838314,13.5432638 12.9473984,13.6077388 C13.7146042,14.3855933 14.4952257,15.1503004 15.2511645,15.9389884 C15.4560148,16.152713 15.7028412,16.225392 15.9576332,16.2981762 C18.0312376,16.8904942 19.6731838,18.0747094 20.8451117,19.8946818 C21.0890559,20.2736433 21.2807002,20.6865252 21.5083989,21.1056127 C21.6311309,20.8639103 21.7451112,20.624259 21.872088,20.3917598 C22.9747368,18.3730509 24.6471302,17.0508928 26.8231859,16.3711181 C27.3017986,16.2216055 27.7033764,16.0155064 28.0509248,15.6431186 C28.7066657,14.9405726 29.4025487,14.2758386 30.0763168,13.5900686 C30.138364,13.5269084 30.1790825,13.4297226 30.2003589,13.3412141 C30.4664179,12.2364619 30.7217863,11.1291328 30.9907276,10.0250642 C31.2077358,9.13403665 31.4249536,8.24253575 31.6691074,7.35871294 C31.8732764,6.61977481 32.2531061,5.99064402 32.948465,5.60637095 C33.440179,5.33463987 33.973974,5.22046759 34.531718,5.22346521 C34.675045,5.22425405 34.7692164,5.20269227 34.8428975,5.05743947 C35.4557189,3.84908552 36.4690175,3.42163629 37.7715905,3.55116476 C37.8475774,3.55873768 37.965855,3.46433914 38.0129144,3.38619082 C38.3298061,2.85982033 38.7608877,2.47091936 39.3188413,2.21591182 C40.9095881,1.48891156 42.8827325,2.68985036 42.993883,4.44240272 C43.0382699,5.14221409 42.8318999,5.79132898 42.6720129,6.45306541 C41.9244589,9.54681334 41.1734461,12.6397198 40.4342768,15.7354662 C40.1442164,16.9501835 39.4417305,17.890961 38.5692435,18.7422833 C37.4990333,19.7865574 36.453034,20.8559167 35.3973924,21.915284 C34.3799013,22.9363659 33.363668,23.9586575 32.3465962,24.9801601 C31.5896617,25.7403445 30.8298974,26.4977416 30.0793039,27.2641316 C30.0174662,27.3272393 29.9912114,27.4498785 29.990635,27.5451711 C29.984032,28.5966499 29.9858138,29.6481813 29.9853421,30.6996601 C29.9852897,30.7939535 29.9853421,30.8882468 29.9853421,30.997949 L28.3168266,30.997949 C28.3121626,30.8949783 28.3037254,30.7943742 28.3036206,30.6937701 C28.3027297,29.4497603 28.307289,28.2058031 28.2986946,26.9618985 C28.2973321,26.7632145 28.349894,26.6178566 28.490234,26.477705 C30.1423468,24.8278603 31.790634,23.1740715 33.4383448,21.5198093 C34.8452033,20.1073546 36.2439914,18.686696 37.6583962,17.2818669 C38.368638,16.5764284 38.7243616,15.7140622 38.9496497,14.7538791 C39.6866704,11.6134315 40.4568633,8.48076717 41.2124353,5.34463192 C41.2573986,5.15799101 41.3028335,4.96882579 41.318817,4.77834583 C41.3571248,4.32160413 41.0971448,3.91177246 40.6904838,3.75673797 C40.2583016,3.59192179 39.8098216,3.71682237 39.5396226,4.12081659 C39.396348,4.33496192 39.2773891,4.58102921 39.21225,4.82977858 C38.6966395,6.80015755 38.1967504,8.77474369 37.691778,10.7479625 C37.4557469,11.6703862 37.1908408,12.5866568 36.9930652,13.5172319 C36.8604287,14.1411037 36.7354434,14.7594536 36.3162052,15.2551117 C35.9782468,15.6546358 35.6006705,16.0211861 35.2315837,16.3932058 C34.0187277,17.6157064 32.8011028,18.8334739 31.5869891,20.0547123 C31.4150491,20.2276273 31.2523322,20.4096403 31.0812307,20.5918111 C30.6704297,20.1719348 30.2869316,19.7799311 29.8761306,19.3600547 C30.2675418,18.9727315 30.6713206,18.5775197 31.0703829,18.1775749 C32.3422467,16.9028002 33.6194557,15.6332844 34.8803145,14.3475709 C35.5553927,13.6592767 35.3211434,12.6259413 34.4568839,12.395388 C33.9932065,12.2716444 33.6056209,12.4509753 33.2895153,12.7650937 C31.9013129,14.1444169 30.5242728,15.5350994 29.1434595,16.9219428 C28.8969474,17.1695352 28.6557283,17.4226495 28.4026132,17.6630897 C28.3389939,17.7235153 28.2420974,17.768164 28.1547911,17.7808907 C26.6864094,17.9946679 25.4436827,18.6526704 24.4164444,19.7149302 C23.2185762,20.953681 22.6475738,22.4855143 22.4447149,24.1669127 C22.3683612,24.79983 22.3514344,25.4424764 22.3457747,26.0810733 C22.3322019,27.6059122 22.3413727,29.131014 22.3413727,30.6559581 L22.3413727,31 Z" id="Fill-1"></path>
                                <path d="M22.0217421,3.70043917 C21.7793406,3.34809359 21.5819138,2.9465225 21.2825723,2.6468136 C20.2863069,1.64939329 19.0685791,1.43638008 17.7798995,1.91220929 C16.6293452,2.33702868 15.9547773,3.24051117 15.752365,4.44826824 C15.4907036,6.00978783 15.9279079,7.41633625 16.867076,8.65678789 C18.1434755,10.3425258 19.8734004,11.4184026 21.8133471,12.184442 C21.9204047,12.2266877 22.0738015,12.2200229 22.1831682,12.1779345 C23.9779049,11.4866256 25.574795,10.4939284 26.8367103,9.02193839 C27.8014357,7.89667867 28.3391902,6.6024883 28.3101167,5.09397273 C28.2805709,3.55921755 27.3914681,2.21134092 25.8878335,1.80509917 C24.4908368,1.42761605 23.0864405,1.94931211 22.3045526,3.1631043 C22.1890459,3.34237336 22.1044494,3.54153205 22.0217421,3.70043917 M30,5.27765005 C29.9867228,7.04457336 29.3477883,8.68864278 28.1274366,10.1024858 C26.5162197,11.9692246 24.4844343,13.1994953 22.1607596,13.972357 C22.0691833,14.0027949 21.9512625,14.0112441 21.8615231,13.9816458 C19.4827451,13.1971862 17.411233,11.9310197 15.781281,10.0084955 C14.792625,8.84230198 14.1720583,7.49038445 14.0346677,5.95835819 C13.9093473,4.5610986 14.1025233,3.21243478 14.9654391,2.04708092 C16.0476655,0.585586748 17.5232237,-0.0653131844 19.3285612,0.0215399469 C20.2586503,0.066304733 21.0982129,0.382387156 21.864147,0.909278659 C21.9259151,0.951786838 22.0663494,0.954935592 22.1269629,0.91331956 C23.4412,0.0110965795 24.8724656,-0.217345524 26.3960423,0.204325117 C27.722507,0.571417355 28.7177753,1.3842682 29.3719287,2.59743064 C29.8030455,3.39700424 29.9844137,4.26306903 30,5.27765005" id="Fill-3"></path>
                            </g>
                        </g>
                    </g>
                </g>
            </g>
        </g>
    </g>
</svg>