<svg width="22" height="44" viewBox="0 0 22 44" fill="none" xmlns="http://www.w3.org/2000/svg">
<g id="Group 12">
<g id="Group 3">
<mask id="mask0" mask-type="alpha" maskUnits="userSpaceOnUse" x="0" y="18" width="22" height="26">
<path id="Clip 2" fill-rule="evenodd" clip-rule="evenodd" d="M0 18.0986H21.9517V43.5185H0V18.0986Z" fill="white"/>
</mask>
<g mask="url(#mask0)">
<path id="Fill 1" fill-rule="evenodd" clip-rule="evenodd" d="M11.9238 35.8144C14.0478 35.8144 16.1719 35.8166 18.2959 35.8134C19.2841 35.8119 19.5111 35.6034 19.5124 34.6853C19.516 32.1134 19.5157 29.5417 19.5115 26.9697C19.5101 26.0031 19.2949 25.806 18.2641 25.8057C15.3266 25.8049 12.3891 25.8066 9.45164 25.8068C8.10152 25.807 6.75097 25.7964 5.40084 25.8102C4.82562 25.8161 4.42247 26.0114 4.42696 26.6772C4.44489 29.2679 4.43915 31.8587 4.44167 34.4496C4.44307 35.6666 4.59231 35.8138 5.83173 35.814C7.86246 35.8144 9.89318 35.8141 11.9238 35.8144ZM22.9482 30.887C22.9482 34.3758 22.9503 37.8647 22.9472 41.3536C22.9456 42.8782 22.2783 43.5165 20.6967 43.517C14.9081 43.5184 9.11926 43.5189 3.33074 43.5182C1.64795 43.5181 1.00561 42.9038 1.0049 41.2909C1.00182 34.2906 1.00014 27.2904 1 20.2901C0.99986 18.7216 1.65173 18.0987 3.29417 18.0987C9.10637 18.0983 14.9183 18.0994 20.7304 18.1029C22.2823 18.1038 22.9484 18.7407 22.95 20.2265C22.9533 23.7801 22.951 27.3335 22.951 30.887H22.9482Z" fill="#09D49E"/>
</g>
</g>
<path id="Fill 4" fill-rule="evenodd" clip-rule="evenodd" d="M6.00469 17C6.00469 14.9815 5.99 13.0435 6.01261 11.1058C6.02066 10.4161 6.46165 10.0114 7.18806 10.0081C10.0611 9.99454 12.9341 10.0013 15.8071 10.0051C16.4662 10.006 16.9573 10.3323 16.9725 10.96C17.0211 12.9599 16.9905 14.9618 16.9905 17H6.00469Z" fill="#09D49E"/>
<g id="Group 8">
<mask id="mask1" mask-type="alpha" maskUnits="userSpaceOnUse" x="2" y="0" width="14" height="5">
<path id="Clip 7" fill-rule="evenodd" clip-rule="evenodd" d="M2.11963 0.0297852H15.8813V4.96035H2.11963V0.0297852Z" fill="white"/>
</mask>
<g mask="url(#mask1)">
<path id="Fill 6" fill-rule="evenodd" clip-rule="evenodd" d="M9.04573 0.0410581C11.0583 0.0410581 13.0713 0.0587724 15.0836 0.0300581C15.6757 0.0214867 15.9011 0.213058 15.8799 0.846201C15.8418 1.98749 15.8571 3.13134 15.8746 4.27363C15.882 4.75234 15.7243 4.96292 15.2402 4.96034C12.7472 4.94649 10.2543 4.94977 7.7613 4.95934C7.36518 4.96077 7.18524 4.80306 7.14159 4.38692C7.01779 3.20592 6.28539 2.54606 5.24775 2.3202C4.47528 2.15206 3.66039 2.12192 2.86802 2.1492C2.27206 2.16977 2.11559 1.9662 2.11971 1.38534C2.12945 0.0366297 2.10832 0.0369153 3.41937 0.037201C5.29483 0.0376296 7.17028 0.037201 9.04573 0.037201V0.0410581Z" fill="#09D49E"/>
</g>
</g>
<mask id="mask2" mask-type="alpha" maskUnits="userSpaceOnUse" x="0" y="0" width="22" height="44">
<path id="Clip 10" fill-rule="evenodd" clip-rule="evenodd" d="M0 44H22V0H0V44Z" fill="white"/>
</mask>
<g mask="url(#mask2)">
<path id="Fill 9" fill-rule="evenodd" clip-rule="evenodd" d="M10 10H13V6H10V10Z" fill="#09D49E"/>
<path id="Fill 11" fill-rule="evenodd" clip-rule="evenodd" d="M12.415 27C12.4618 27.6409 12.4418 28.8111 12.4418 29.5092H15V31.5634H12.54V34H10.5134V31.5711H8V29.5095C8.60936 29.5095 9.21829 29.4786 9.82253 29.5182L10.5021 29.4917C10.4522 28.9376 10.4921 27.6553 10.4921 27" fill="#09D49E"/>
</g>
</g>
</svg>
