<?xml version="1.0" encoding="UTF-8"?>
<svg width="37px" height="37px" viewBox="0 0 37 37" version="1.1" xmlns="http://www.w3.org/2000/svg" xmlns:xlink="http://www.w3.org/1999/xlink">
    <!-- Generator: Sketch 59.1 (86144) - https://sketch.com -->
    <title>Group 3</title>
    <desc>Created with Sketch.</desc>
    <defs>
        <polygon id="path-1" points="0 0 37 0 37 37 0 37"></polygon>
    </defs>
    <g id="Page-1" stroke="none" stroke-width="1" fill="none" fill-rule="evenodd">
        <g id="tips" transform="translate(-36.000000, -552.000000)">
            <g id="Main" transform="translate(21.000000, 49.000000)">
                <g id="Tips_list" transform="translate(0.000000, 66.000000)">
                    <g id="Porada_5" transform="translate(0.000000, 420.000000)">
                        <g id="Group-3">
                            <g transform="translate(15.000000, 17.000000)">
                                <mask id="mask-2" fill="white">
                                    <use xlink:href="#path-1"></use>
                                </mask>
                                <g id="Clip-2"></g>
                                <path d="M21.6342083,24.295125 C23.00475,23.8989167 25.0736667,23.3022917 25.18775,21.880875 C25.2540417,21.04375 24.39225,20.0555417 23.1065,20.0416667 C22.2632083,20.0324167 21.5817917,19.346375 21.5817917,18.5 C21.5817917,17.649 22.2724583,16.9583333 23.1234583,16.9583333 L23.1404167,16.9583333 C25.87225,16.9583333 28.2479583,19.115125 28.2741667,21.7390417 C28.300375,23.7015833 26.9622083,25.3881667 25.210875,26.2622917 C24.2874167,25.48375 23.0587083,24.8609167 21.6342083,24.295125 M12.2716667,28.3127083 C13.602125,28.698125 14.823125,29.0265 15.8945833,29.2747083 C13.287625,30.6159583 13.5897917,32.361125 15.415125,33.2645417 L15.415125,34.8062083 C12.1190417,34.682875 10.3199167,31.1324167 12.2716667,28.3127083 M3.41016667,12.7773333 C1.60641667,11.4946667 0.331458333,9.763375 0,7.617375 C0.760041667,7.571125 1.614125,7.5665 2.34333333,7.35220833 C5.04895833,6.553625 6.91129167,3.038625 10.318375,3.08333333 C13.518875,3.186625 14.545625,6.00325 16.404875,6.710875 C16.5467083,6.766375 16.7363333,6.81108333 16.9567917,6.84808333 L16.9567917,5.7535 C16.034875,5.22008333 15.415125,4.22416667 15.415125,3.08333333 C15.415125,1.38133333 16.7964583,0 18.4984583,0 C20.1989167,0 21.5817917,1.38133333 21.5817917,3.08333333 C21.5817917,4.22416667 20.9605,5.22008333 20.040125,5.7535 L20.040125,6.84808333 C20.2605833,6.812625 20.45175,6.766375 20.595125,6.710875 C22.454375,6.00325 23.481125,3.186625 26.6800833,3.08333333 C30.0871667,3.038625 31.9495,6.553625 34.6566667,7.35220833 C35.385875,7.5665 36.2399583,7.571125 37,7.617375 C36.6685417,9.763375 35.395125,11.493125 33.5929167,12.7757917 C31.8215417,11.9987917 30.3153333,10.8903333 29.0234167,9.559875 C29.382625,11.187875 30.205875,12.75575 31.3050833,14.05075 C30.2320833,14.517875 29.0635,14.8678333 27.8579167,15.0990833 C26.2915833,13.879625 25.072125,12.4427917 23.9867917,10.5619583 C23.980625,12.288625 24.3614167,13.8565 25.0382083,15.4182083 C23.3315833,15.4814167 21.6203333,15.313375 20.040125,14.90175 L20.040125,25.5747083 C21.33975,25.978625 22.98625,26.5166667 23.9590417,27.42625 C27.0547083,30.3199583 25.238625,34.669 21.5864167,34.8062083 L21.5864167,33.2645417 C23.536625,32.2979167 23.9050833,30.2413333 20.040125,28.827625 L20.040125,35.4583333 C20.040125,36.310875 19.3494583,37 18.4984583,37 C17.6474583,37 16.9567917,36.310875 16.9567917,35.4583333 L16.9567917,27.9103333 C13.9428333,27.1240833 8.68729167,26.1065833 8.72583333,21.7390417 C8.75358333,19.124375 11.1154167,16.9583333 13.861125,16.9583333 L13.8765417,16.9583333 C14.7290833,16.9583333 15.4182083,17.649 15.4182083,18.5 C15.4182083,19.346375 14.7367917,20.0324167 13.8935,20.0416667 C12.6046667,20.0555417 11.7475,21.0468333 11.8137917,21.880875 C11.964875,23.6137083 15.2362917,24.2781667 16.9567917,24.7221667 L16.9567917,14.9032917 C15.3796667,15.313375 13.6730417,15.4814167 11.9710417,15.4182083 C12.6478333,13.8565 13.0270833,12.288625 13.019375,10.5619583 C11.9340417,12.4427917 10.7145833,13.8811667 9.14825,15.100625 C7.941125,14.869375 6.77408333,14.5194167 5.69954167,14.0538333 C6.80029167,12.7572917 7.62354167,11.187875 7.98429167,9.559875 C6.692375,10.891875 5.18154167,12.001875 3.41016667,12.7773333" id="Fill-1" fill="#09D49E" mask="url(#mask-2)"></path>
                            </g>
                        </g>
                    </g>
                </g>
            </g>
        </g>
    </g>
</svg>