<?xml version="1.0" encoding="UTF-8"?>
<svg width="37px" height="49px" viewBox="0 0 37 49" version="1.1" xmlns="http://www.w3.org/2000/svg" xmlns:xlink="http://www.w3.org/1999/xlink">
    <!-- Generator: Sketch 59.1 (86144) - https://sketch.com -->
    <title>Group 20</title>
    <desc>Created with Sketch.</desc>
    <defs>
        <polygon id="path-1" points="1.05026113e-05 0.0500607903 22.9134438 0.0500607903 22.9134438 45 1.05026113e-05 45"></polygon>
    </defs>
    <g id="Page-1" stroke="none" stroke-width="1" fill="none" fill-rule="evenodd">
        <g id="main_activity" transform="translate(-38.000000, -551.000000)">
            <g id="Belka" transform="translate(0.000000, 20.000000)">
                <g id="add-activity" transform="translate(21.000000, 310.000000)">
                    <g id="Group-4" transform="translate(0.000000, 210.000000)">
                        <g id="Group-20" transform="translate(35.500000, 35.500000) rotate(22.000000) translate(-35.500000, -35.500000) translate(24.000000, 13.000000)">
                            <g id="Group-3">
                                <mask id="mask-2" fill="white">
                                    <use xlink:href="#path-1"></use>
                                </mask>
                                <g id="Clip-2"></g>
                                <path d="M14.2171438,3.06291337 L8.72272959,3.06291337 C9.64381834,3.99574012 13.2016053,4.01283739 14.2171438,3.06291337 L14.2171438,3.06291337 Z M11.5039604,40.4555881 C10.5476231,40.430421 9.63837456,41.244114 9.69716746,42.1828222 C9.75854615,43.1676246 10.2505284,43.8569863 11.3258124,43.9298891 C12.337268,43.9984149 13.1437651,43.2840228 13.2026941,42.2865 C13.258629,41.3368495 12.4645166,40.4808921 11.5039604,40.4555881 L11.5039604,40.4555881 Z M21.5571379,5.84853647 C21.0316763,5.82364286 20.5972621,5.78507143 20.1627118,5.78479787 C14.3769189,5.78069453 8.59071775,5.81721429 2.80560533,5.75388602 C1.58156982,5.74048176 1.24051657,6.07449392 1.24642758,7.31493465 C1.29617929,17.5128374 1.27413195,27.7112872 1.27399586,37.9097371 L1.27399586,39.1894331 L21.5571379,39.1894331 L21.5571379,5.84853647 Z M22.9125047,22.638734 C22.9125047,28.0960441 22.9167237,33.5534909 22.9073331,39.0108009 C22.9061083,39.7245091 22.8852858,40.445193 22.7877059,41.1505578 C22.4755047,43.4073967 21.1949899,44.7081565 18.9449367,44.9047067 C17.4419071,45.0360137 15.9221379,44.9870471 14.4097178,44.9923815 C11.4280195,45.0029134 8.44604911,45.0018191 5.46421479,44.9936125 C1.48603136,44.9825334 0.0103568047,43.4900106 0.00314378698,39.4499954 C-0.00556627219,34.6635821 0.00654615385,29.8773055 0.00749881657,25.0908921 C0.00885976331,18.8283693 0.00613786982,12.5658465 0.0103568047,6.30318693 C0.0107650888,5.63297416 0.00219112426,4.95783739 0.0733686391,4.29309574 C0.37413787,1.48367325 1.81633314,0.108779635 4.62178876,0.0822446809 C9.0723568,0.0399802432 13.5237414,0.0390227964 17.9741734,0.0810136778 C21.3116231,0.112746201 22.8554811,1.66996505 22.8790254,5.05932675 C22.9198538,10.9189012 22.8903213,16.778886 22.8903213,22.638734 L22.9125047,22.638734 Z" id="Fill-1" fill="#FFFFFF" mask="url(#mask-2)"></path>
                            </g>
                            <line x1="9" y1="27" x2="16" y2="16" id="Fill-8" fill="#FFFFFF"></line>
                            <path d="M6.31988451,29.8823511 L6.31988451,29.8823511 C5.99625884,29.661072 5.90270923,29.2034423 6.11079714,28.8597633 L16.7176837,11.3398983 C16.9257716,10.9959909 17.3567395,10.8966551 17.6801653,11.1177058 C18.0035911,11.3387565 18.0973406,11.7966146 17.8892527,12.1402936 L7.28236607,29.6601586 C7.07427816,30.0038376 6.6433103,30.1034018 6.31988451,29.8823511" id="Fill-10" stroke="#FFFFFF" stroke-width="0.5" fill="#FFFFFF"></path>
                            <path d="M13.4386955,28.8416547 L13.4386955,28.8416547 C12.9948859,28.5438904 12.8665635,27.9278345 13.1519506,27.4651436 L16.2409652,22.4574179 C16.5263522,21.9944911 17.1174949,21.8609455 17.5613045,22.1584739 C18.0051141,22.4560022 18.1334365,23.0722941 17.8480494,23.534985 L14.7590348,28.5424747 C14.4736478,29.0051656 13.8825051,29.1391831 13.4386955,28.8416547" id="Fill-14" fill="#FFFFFF"></path>
                            <line x1="11" y1="20" x2="13" y2="17" id="Fill-16" fill="#FFFFFF"></line>
                            <path d="M6.51249685,18.8369353 L6.51249685,18.8369353 C5.99402551,18.5308759 5.84411564,17.896913 6.17751307,17.4209555 L8.94489684,13.4705803 C9.27855866,12.9946228 9.96914875,12.8567625 10.4876201,13.1630647 C11.0060914,13.4691241 11.1557369,14.103087 10.8226039,14.5790445 L8.05495571,18.5294197 C7.72155828,19.0053772 7.0309682,19.1432375 6.51249685,18.8369353" id="Fill-18" fill="#FFFFFF"></path>
                        </g>
                    </g>
                </g>
            </g>
        </g>
    </g>
</svg>