<svg width="23" height="45" viewBox="0 0 23 45" fill="none" xmlns="http://www.w3.org/2000/svg">
<mask id="mask0" mask-type="alpha" maskUnits="userSpaceOnUse" x="0" y="0" width="23" height="45">
<path fill-rule="evenodd" clip-rule="evenodd" d="M0 0L22.9134 0L22.9134 44.9499H0L0 0Z" fill="white"/>
</mask>
<g mask="url(#mask0)">
<path fill-rule="evenodd" clip-rule="evenodd" d="M14.2171 3.01289L8.72272 3.01289C9.64381 3.94571 13.2016 3.96281 14.2171 3.01289ZM11.504 40.4056C10.5476 40.3804 9.63836 41.1941 9.69716 42.1328C9.75854 43.1176 10.2505 43.807 11.3258 43.8799C12.3373 43.9484 13.1438 43.234 13.2027 42.2365C13.2586 41.2868 12.4645 40.4309 11.504 40.4056ZM21.5571 5.79851C21.0317 5.77361 20.5973 5.73504 20.1627 5.73477C14.3769 5.73067 8.59071 5.76719 2.80559 5.70386C1.58156 5.69045 1.24051 6.02447 1.24649 7.26491C1.29617 17.4628 1.27412 27.6613 1.27399 37.8597L1.27399 39.1394H21.5571L21.5571 5.79851ZM22.9125 22.5887C22.9125 28.046 22.9167 33.5035 22.9073 38.9608C22.9061 39.6745 22.8853 40.3952 22.7877 41.1005C22.4755 43.3574 21.195 44.6581 18.9449 44.8547C17.4419 44.986 15.9221 44.937 14.4097 44.9424C11.428 44.9529 8.44604 44.9518 5.4642 44.9436C1.48602 44.9325 0.0103463 43.44 0.00313328 39.4C-0.00557677 34.6136 0.00653565 29.8273 0.00748831 25.0409C0.00884926 18.7783 0.00612737 12.5158 0.0103463 6.25316C0.0107546 5.58295 0.00218062 4.90781 0.0733581 4.24307C0.374127 1.43365 1.81632 0.0587515 4.62178 0.0322166C9.07235 -0.0100479 13.5237 -0.0110053 17.9742 0.0309856C21.3116 0.0627181 22.8555 1.61994 22.879 5.0093C22.9198 10.8689 22.8903 16.7289 22.8903 22.5887H22.9125Z" fill="#09D49E"/>
</g>
<path fill-rule="evenodd" clip-rule="evenodd" d="M6.31964 29.8321C5.99601 29.6108 5.90247 29.1532 6.11055 28.8095L16.7174 11.2896C16.9255 10.9457 17.3565 10.8464 17.6799 11.0674C18.0033 11.2885 18.0971 11.7463 17.889 12.09L7.28212 29.6099C7.07403 29.9535 6.64307 30.0531 6.31964 29.8321Z" fill="#09D49E"/>
<path d="M6.31964 29.8321V29.8321C5.99601 29.6108 5.90247 29.1532 6.11055 28.8095L16.7174 11.2896C16.9255 10.9457 17.3565 10.8464 17.6799 11.0674C18.0033 11.2885 18.0971 11.7463 17.889 12.09L7.28212 29.6099C7.07403 29.9535 6.64307 30.0531 6.31964 29.8321" stroke="#09D49E" stroke-width="0.5"/>
<path fill-rule="evenodd" clip-rule="evenodd" d="M13.4389 28.7914C12.9951 28.4936 12.8668 27.8775 13.1522 27.4149L16.2412 22.4071C16.5266 21.9442 17.1177 21.8107 17.5615 22.1082C18.0054 22.4057 18.1337 23.022 17.8483 23.4847L14.7593 28.4922C14.4739 28.9549 13.8827 29.0889 13.4389 28.7914Z" fill="#09D49E"/>
<path fill-rule="evenodd" clip-rule="evenodd" d="M6.5125 18.7871C5.99403 18.4811 5.84412 17.8471 6.17751 17.3712L8.9449 13.4208C9.27856 12.9448 9.96915 12.807 10.4876 13.1133C11.0061 13.4193 11.1557 14.0533 10.8226 14.5292L8.05496 18.4796C7.72156 18.9556 7.03097 19.0934 6.5125 18.7871Z" fill="#09D49E"/>
</svg>
