<?xml version="1.0" encoding="UTF-8"?>
<svg width="21px" height="44px" viewBox="0 0 21 44" version="1.1" xmlns="http://www.w3.org/2000/svg" xmlns:xlink="http://www.w3.org/1999/xlink">
    <!-- Generator: Sketch 59.1 (86144) - https://sketch.com -->
    <title>Group 12</title>
    <desc>Created with Sketch.</desc>
    <defs>
        <polygon id="path-1" points="7.00411081e-05 0.0986485995 21.9517962 0.0986485995 21.9517962 25.5185185 7.00411081e-05 25.5185185"></polygon>
        <polygon id="path-3" points="0.119676295 0.03 13.8813206 0.03 13.8813206 4.96056611 0.119676295 4.96056611"></polygon>
        <polygon id="path-5" points="0 44 22 44 22 0 0 0"></polygon>
    </defs>
    <g id="Page-1" stroke="none" stroke-width="1" fill="none" fill-rule="evenodd">
        <g id="main_activity" transform="translate(-46.000000, -448.000000)">
            <g id="Group-12" transform="translate(45.000000, 448.000000)">
                <g id="Group-3" transform="translate(0.000000, 18.000000)">
                    <mask id="mask-2" fill="white">
                        <use xlink:href="#path-1"></use>
                    </mask>
                    <g id="Clip-2"></g>
                    <path d="M11.9238408,17.8144084 C14.0478917,17.8144084 16.1719427,17.8166274 18.2959936,17.8134376 C19.284172,17.8119121 19.5111783,17.6034646 19.5124395,16.6853527 C19.5160828,14.1133911 19.5158025,11.5417069 19.5115987,8.96974539 C19.5101975,8.00309281 19.2949618,7.80601773 18.2641847,7.80574036 C15.3266943,7.80490823 12.3892038,7.80657248 9.45171338,7.80684986 C8.10158599,7.80698855 6.75103822,7.79644829 5.40091083,7.81017836 C4.8256879,7.81614193 4.4225414,8.01141407 4.42698844,8.67725324 C4.44496178,11.2679376 4.43921656,13.8587607 4.44173885,16.4495838 C4.44314013,17.6665675 4.5923758,17.8138537 5.83180255,17.8139924 C7.86252866,17.8144084 9.89325478,17.8141311 11.9238408,17.8144084 L11.9238408,17.8144084 Z M22.9482229,12.8869767 C22.9482229,16.375802 22.9503248,19.8647659 22.947242,23.3535912 C22.9457006,24.878184 22.278414,25.516563 20.6967962,25.5169791 C14.9081338,25.5185258 9.11933121,25.5189207 3.33080892,25.5182273 C1.64801911,25.5180886 1.00567516,24.9038412 1.00497452,23.2909044 C1.00189172,16.2906478 1.00007004,9.29039112 1.00007004,2.29013448 C1.00007004,0.721577717 1.65180255,0.0986485995 3.29423567,0.0986485995 C9.10643949,0.0983156401 14.9183631,0.0994251409 20.7304268,0.102892331 C22.2823376,0.103863144 22.9485032,0.740716606 22.9500446,2.22647687 C22.9534076,5.78006926 22.9510255,9.33352297 22.9510255,12.8869767 L22.9482229,12.8869767 Z" id="Fill-1" fill="#FFFFFF" mask="url(#mask-2)"></path>
                </g>
                <path d="M6.00469461,17 C6.00469461,14.9815225 5.98999964,13.0435486 6.01260729,11.1058486 C6.02066127,10.4160914 6.46165175,10.0113828 7.18806382,10.0080969 C10.0610723,9.99454275 12.9340808,10.0012514 15.8070893,10.0050849 C16.4662436,10.0060433 16.9572535,10.332302 16.9725137,10.9600385 C17.0211202,12.9598961 16.9904585,14.9618073 16.9904585,17 L6.00469461,17 Z" id="Fill-4" fill="#FFFFFF"></path>
                <g id="Group-8" transform="translate(2.000000, 0.000000)">
                    <mask id="mask-4" fill="white">
                        <use xlink:href="#path-3"></use>
                    </mask>
                    <g id="Clip-7"></g>
                    <path d="M7.04577451,0.0412571429 C9.05834314,0.0412571429 11.0713235,0.0589714286 13.0836176,0.0302571429 C13.6757353,0.0216857143 13.9011078,0.213257143 13.8799706,0.8464 C13.8418137,1.98768571 13.8571863,3.13154286 13.8746176,4.27382857 C13.8820294,4.75254286 13.7243235,4.96311429 13.2402255,4.96056611 C10.7472647,4.94668571 8.25430392,4.94997143 5.76134314,4.95954286 C5.36522549,4.96097143 5.18528431,4.80325714 5.14163725,4.38711429 C5.01783333,3.20611429 4.28544118,2.54625714 3.24779412,2.3204 C2.47532353,2.15225714 1.66044118,2.12211429 0.868068627,2.1494 C0.272107843,2.16997143 0.115637255,1.9664 0.119676295,1.38554286 C0.1295,0.0368285714 0.108362745,0.0371142857 1.41942157,0.0374 C3.29487255,0.0378285714 5.17032353,0.0374 7.04577451,0.0374 L7.04577451,0.0412571429 Z" id="Fill-6" fill="#FFFFFF" mask="url(#mask-4)"></path>
                </g>
                <mask id="mask-6" fill="white">
                    <use xlink:href="#path-5"></use>
                </mask>
                <g id="Clip-10"></g>
                <polygon id="Fill-9" fill="#FFFFFF" mask="url(#mask-6)" points="10 10 13 10 13 6 10 6"></polygon>
                <path d="M12.4149584,27 C12.4618429,27.640853 12.4418104,28.8111308 12.4418104,29.5092455 L15,29.5092455 L15,31.5633517 L12.5399838,31.5633517 L12.5399838,34 L10.5134362,34 L10.5134362,31.5710898 L8,31.5710898 L8,29.5095269 C8.60935661,29.5095269 9.21828699,29.4785746 9.82252892,29.5182498 L10.5020702,29.491659 C10.4522022,28.9376131 10.492125,27.6553443 10.492125,27" id="Fill-11" fill="#FFFFFF" mask="url(#mask-6)"></path>
            </g>
        </g>
    </g>
</svg>