<?xml version="1.0" encoding="UTF-8"?>
<svg width="39px" height="72px" viewBox="0 0 39 72" version="1.1" xmlns="http://www.w3.org/2000/svg" xmlns:xlink="http://www.w3.org/1999/xlink">
    <!-- Generator: Sketch 59.1 (86144) - https://sketch.com -->
    <title>Group 12</title>
    <desc>Created with Sketch.</desc>
    <defs>
        <polygon id="path-1" points="5.46385365e-05 0.0341744422 31.9117677 0.0341744422 31.9117677 71.8539008 5.46385365e-05 71.8539008"></polygon>
    </defs>
    <g id="Page-1" stroke="none" stroke-width="1" fill="none" fill-rule="evenodd">
        <g id="tip" transform="translate(-91.000000, -473.000000)">
            <g id="Main" transform="translate(21.000000, 49.000000)">
                <g id="tip_02" transform="translate(0.000000, 401.000000)">
                    <g id="Group-12" transform="translate(70.000000, 23.000000)">
                        <g id="Group-3">
                            <mask id="mask-2" fill="white">
                                <use xlink:href="#path-1"></use>
                            </mask>
                            <g id="Clip-2"></g>
                            <path d="M21.8107684,26.9467959 L21.8137451,26.9467959 C21.8137451,21.2757371 21.816573,15.6048243 21.8091312,9.93376552 C21.808387,9.40070264 21.8085358,8.85420365 21.6972056,8.33691359 C21.0516986,5.33613469 18.1763126,3.33912049 15.0181358,3.6648 C11.9776893,3.97850385 9.78501953,6.50478377 9.78263814,9.75223205 C9.77415442,20.9722564 9.74781023,32.1925728 9.81865674,43.412159 C9.82773581,44.858585 9.40474047,45.7282807 8.22163349,46.5835181 C4.28414512,49.4302199 2.45136372,54.9239805 3.72347535,59.5736032 C5.53125209,66.1815383 12.757894,70.091445 19.3021172,68.0022767 C26.4279963,65.7274856 30.0317916,58.4267148 27.3559963,51.698731 C26.4055219,49.3088568 24.8141544,47.4264876 22.6598847,46.0035748 C22.0225637,45.5826742 21.7856149,45.0978061 21.7905265,44.3246458 C21.8277358,38.5322239 21.8107684,32.7395099 21.8107684,26.9467959 L21.8107684,26.9467959 Z M6.4376707,25.78837 C6.4376707,20.3138872 6.4260614,14.8394045 6.44094512,9.3649217 C6.4544893,4.43942069 10.0801637,0.52586288 15.1901916,0.0716640974 C19.8843684,-0.345439351 24.150787,2.75611034 25.1240335,7.39974523 C25.2724242,8.10835375 25.3309172,8.84704746 25.3318102,9.57186694 C25.3446102,20.6182442 25.3458009,31.6644755 25.3273451,42.7107067 C25.3264521,43.3005809 25.5044614,43.6667148 25.9640707,44.0550475 C30.953987,48.2694572 32.9568893,53.5891327 31.389187,59.8741631 C29.8424707,66.0760941 25.6997358,70.0133112 19.3302474,71.4644105 C10.4186195,73.495015 1.43718698,67.3547148 0.18263814,58.4229176 C-0.637454884,52.5849298 1.31037767,47.7521671 5.91956837,43.9707797 C6.2980614,43.6601428 6.45314977,43.3541793 6.45181023,42.868727 C6.43484279,37.1753233 6.44094512,31.4817736 6.44094512,25.78837 L6.4376707,25.78837 Z" id="Fill-1" fill="#904AF7" mask="url(#mask-2)"></path>
                        </g>
                        <path d="M29,13.9490911 L29,11.048818 C29.2053755,11.0313227 29.3863015,11.0027171 29.5669398,11.0025894 C32.1050813,10.9997799 34.6429352,10.9987583 37.1809329,11.0020786 C38.3619856,11.0034833 38.9958019,11.4868409 39,12.3751461 C39.0048625,13.3963906 38.3539316,13.9916164 37.1738857,13.9959583 C34.6360318,14.0050253 32.0980341,13.9965968 29.5603241,13.9923826 C29.3960812,13.9921272 29.2318384,13.9677359 29,13.9490911" id="Fill-4" fill="#904AF7"></path>
                        <path d="M29,31.9977925 L29,29.0705014 C29.1700978,29.0477744 29.3279531,29.008612 29.4859524,29.0082268 C32.0763064,29.0032192 34.6668045,29.0063008 37.2571585,29 C38.0392337,28.9980831 38.5943198,29.3003396 38.8920269,29.9418321 C39.1460933,30.4895917 38.9414287,31.2290544 38.3870627,31.6285106 C38.1400537,31.8064747 37.7975537,31.9791743 37.4962459,31.9819991 C34.6938818,32.0087066 31.8912297,31.9977925 29,31.9977925" id="Fill-6" fill="#904AF7"></path>
                        <path d="M29.005957,22.9903059 C29.005957,22.0586281 28.9806072,21.201283 29.0344945,20.3473396 C29.0422361,20.2252577 29.4308317,20.0260714 29.6475951,20.0217878 C31.1365538,19.9929367 32.6268786,19.9969683 34.1167481,20.009693 C35.1955562,20.0188901 35.9700151,20.6051101 35.9993116,21.3992094 C36.0275455,22.1653396 35.1834126,22.9572971 34.1921902,22.9797229 C32.5034692,23.0180231 30.8126229,22.9903059 29.005957,22.9903059" id="Fill-8" fill="#904AF7"></path>
                        <path d="M13.4478079,23 L18.4638487,23 L18.4638487,23.8603073 C18.4638487,31.5067575 18.4715507,39.1533497 18.4493335,46.7996579 C18.4475561,47.3975828 18.6669135,47.7288636 19.1604305,48.0612809 C20.287877,48.8204425 21.4613871,49.5555961 22.4370163,50.475284 C25.1531374,53.0363178 25.7479647,56.9932201 24.0418354,60.3138416 C22.3982104,63.5130029 18.8153241,65.3482589 15.0514421,64.9448123 C8.27491402,64.2180401 5.62914727,57.5965433 7.67505088,53.0059172 C8.33341919,51.5287911 9.4456099,50.4008452 10.7499049,49.4308686 C11.0618338,49.1988868 11.3568776,48.9159059 11.7105746,48.7715743 C13.2736254,48.1344412 13.5021659,46.9877435 13.4849846,45.4736822 C13.4023368,38.2305366 13.447956,30.9859704 13.4478079,23.7419725 L13.4478079,23 Z" id="Fill-10" fill="#904AF7"></path>
                    </g>
                </g>
            </g>
        </g>
    </g>
</svg>