<?xml version="1.0" encoding="UTF-8"?>
<svg width="38px" height="39px" viewBox="0 0 38 39" version="1.1" xmlns="http://www.w3.org/2000/svg" xmlns:xlink="http://www.w3.org/1999/xlink">
    <!-- Generator: Sketch 59.1 (86144) - https://sketch.com -->
    <title>Group 6</title>
    <desc>Created with Sketch.</desc>
    <defs>
        <polygon id="path-1" points="4.98687664e-05 0.0717816875 37.9702149 0.0717816875 37.9702149 38.22 4.98687664e-05 38.22"></polygon>
    </defs>
    <g id="Page-1" stroke="none" stroke-width="1" fill="none" fill-rule="evenodd">
        <g id="tips" transform="translate(-35.000000, -237.000000)">
            <g id="Main" transform="translate(21.000000, 49.000000)">
                <g id="Tips_list" transform="translate(0.000000, 66.000000)">
                    <g id="Porada_2" transform="translate(0.000000, 105.000000)">
                        <g id="Group-3">
                            <g id="Group-6" transform="translate(14.000000, 17.000000)">
                                <path d="M20.9999488,18.980645 C20.9918025,17.8911268 20.050246,16.9795803 18.9545664,17.000348 C17.8983045,17.0203271 17.0167942,17.9053224 17.0002388,18.9625061 C16.9830264,20.0563619 17.8986987,20.9951168 18.9878086,21 C20.0731082,21.0049749 21.0079638,20.0670087 20.9999488,18.980645 M18.955583,15.000222 C21.1441272,14.9773184 22.961345,16.7294473 22.9993766,18.8989469 C23.0383762,21.1196348 21.2425944,22.9775896 19.0355184,22.9998034 C16.8628783,23.0214653 15.0362564,21.25002 15.0005758,19.0863153 C14.9635123,16.8384466 16.7201562,15.0235396 18.955583,15.000222" id="Fill-1" fill="#40d9ab"></path>
                                <g id="Group-5">
                                    <mask id="mask-2" fill="white">
                                        <use xlink:href="#path-1"></use>
                                    </mask>
                                    <g id="Clip-4"></g>
                                    <path d="M35.0776404,20.6322925 C34.2678714,20.6172057 33.6045171,19.939203 33.594643,19.1134499 C33.5836719,18.2596352 34.2787428,17.5606115 35.1265118,17.572681 C35.945357,17.5837446 36.5976404,18.2515889 36.6037244,19.0853883 C36.6106063,19.9483557 35.9204226,20.6472788 35.0776404,20.6322925 M21.3029895,27.2683909 C20.546979,27.4946935 19.7469843,27.6154889 18.9191627,27.6154889 C17.9257769,27.6154889 16.9723858,27.4414873 16.0867165,27.1216462 L16.0856194,27.1216462 C12.8222073,25.944772 10.4804698,22.7957457 10.4804698,19.1054035 C10.4804698,15.3246409 12.9370052,12.1132557 16.3249895,11.0078931 C17.142937,10.7403531 18.014643,10.5955194 18.9191627,10.5955194 C19.5006325,10.5955194 20.0682388,10.654861 20.6177927,10.7685152 L20.6186903,10.7685152 C24.4595827,11.5640946 27.3570577,14.9998715 27.3570577,19.1054035 C27.3570577,22.9627068 24.7986903,26.2294104 21.3029895,27.2683909 M20.5499722,35.3178246 C20.548874,36.1455894 19.8308635,36.8575878 19.0080289,36.8456189 C18.2080341,36.8335494 17.5308163,36.1586646 17.5129633,35.3550389 C17.4939134,34.5001178 18.1562703,33.816181 19.0099239,33.8081346 C19.8697612,33.8010941 20.5509685,34.4688378 20.5499722,35.3178246 M12.3993202,11.5529304 C12.3685013,11.5791815 12.3385801,11.605332 12.3096562,11.6324883 C12.141,11.3438268 12.0104436,11.1889352 12.3993202,11.5529304 M17.5119659,2.93542675 C17.4840394,2.09156938 18.1562703,1.37846465 18.9960604,1.35935465 C19.826874,1.34024465 20.5438871,2.03826254 20.5499972,2.87005044 C20.554958,3.69781517 19.8438294,4.41796044 19.0219921,4.41595306 C18.2299764,4.41393728 17.5387953,3.73502938 17.5119659,2.93542675 M28.8541181,27.8146352 C29.4664068,27.8226815 29.9910262,28.3375451 30.0159606,28.9530883 C30.040895,29.5757725 29.4734882,30.1782404 28.8541181,30.1882983 C28.2257717,30.1982556 27.6602598,29.6319962 27.6591578,28.9913083 C27.6572677,28.3396573 28.1997402,27.8054825 28.8541181,27.8146352 M9.22766667,30.1882983 C8.60739895,30.1953389 8.03390814,29.6109752 8.04188714,28.978233 C8.04876903,28.3607789 8.56151969,27.8367625 9.17690026,27.815641 C9.82419685,27.7945194 10.3876142,28.3225589 10.4026745,28.9661635 C10.4165381,29.6028283 9.86000262,30.1811572 9.22766667,30.1882983 M2.7677664,20.6323189 C1.95690026,20.6272636 1.29364567,19.9553962 1.2785853,19.1265251 C1.26372441,18.2898089 1.89606037,17.6048662 2.71281102,17.5736868 C3.56267454,17.5415015 4.2718084,18.2162856 4.28766667,19.0723131 C4.30362467,19.9211994 3.60546194,20.6373215 2.7677664,20.6323189 M9.23873753,10.3993904 C8.61138845,10.4124657 8.04188714,9.84419465 8.04188714,9.20551833 C8.04188714,8.58394044 8.54356693,8.05992412 9.1658294,8.03176202 C9.81811286,8.00259412 10.3826273,8.52258728 10.4026745,9.17132149 C10.4215249,9.80295728 9.86798163,10.387321 9.23873753,10.3993904 M28.8999974,8.03266723 C29.5223596,8.06595886 30.0229423,8.59399833 30.0170577,9.21446986 C30.0109738,9.85123517 29.4355879,10.4164889 28.8091365,10.3973789 C28.1698189,10.3792746 27.6363228,9.80597465 27.6591627,9.16226938 C27.6830997,8.50548886 28.2406325,7.99756517 28.8999974,8.03266723 M35.7769003,16.2661604 C34.4861969,15.9503425 33.1677664,16.5809725 32.5034147,17.8060241 C32.3787428,18.0353441 32.1773727,18.3833473 31.996748,18.3922988 C30.9425223,18.4487236 29.8853045,18.4205615 28.8669843,18.4205615 C28.8470367,18.3290346 28.8270892,18.2395194 28.8072415,18.1510099 L28.8072415,18.1489983 C28.6056719,16.0127015 27.736958,14.0695162 26.4135407,12.5356873 C26.5231522,12.4713168 26.5182651,12.527641 27.0458766,11.9694278 C27.3859816,11.610361 27.6751207,11.509782 28.1787953,11.667691 C29.223147,11.9965841 30.1337507,11.648581 30.8159554,10.802712 C31.4850945,9.97595307 31.5698714,9.02548202 31.117063,8.07903412 C30.6613622,7.12655149 29.8624646,6.6497067 29.1961181,6.64880149 C27.07879,6.67193465 25.892811,8.29226149 26.4215197,9.96790675 C26.5540709,10.3903383 26.4763753,10.6266989 26.1811522,10.9133489 C25.5538031,11.5248689 25.6314987,11.4484289 25.486979,11.5962799 C23.984832,10.2575741 22.0808425,9.37046781 19.9833622,9.14517096 C19.8497139,9.02347044 19.739105,8.86053254 19.7281339,8.72977991 C19.6681916,7.95029307 19.7260394,7.16175412 19.6952205,6.37723833 C19.6782651,5.92563886 19.8247795,5.70134781 20.2526535,5.50220149 C21.5083491,4.91471986 22.1746955,3.51073833 21.8585276,2.25651886 C21.5772677,1.14210412 20.6078189,-0.107086405 19.0348583,0.0930657 C17.586769,0.0930657 16.7239396,0.694527805 16.2761181,2.02015833 C15.9030997,3.12250359 16.2293412,4.61610096 17.2805748,5.13207096 C18.4066115,5.68424938 18.4275564,6.48385202 18.3557454,7.46449675 C18.3287165,7.82859254 18.3238294,8.19872307 18.3576404,8.56181307 C18.3795827,8.80320254 18.3546483,8.98223307 18.2639869,9.10896254 C16.0448268,9.25480202 14.0221496,10.138891 12.4362231,11.5198399 C12.4083963,11.4645215 12.4202651,11.4504404 11.9175879,10.9576036 C11.617378,10.6629073 11.474853,10.4335873 11.6314409,9.95684307 C12.1749108,8.29829623 10.9640971,6.66589991 8.93743045,6.65081307 C8.18351444,6.65785359 7.38561417,7.13258623 6.93470079,8.09210938 C6.48797638,9.04358623 6.57664304,9.98902833 7.24987139,10.8147815 C7.91512073,11.6314825 8.80687402,12.0036246 9.81522047,11.6767431 C10.3946955,11.4896662 10.7027848,11.6455636 11.072811,12.0398331 C11.2633097,12.2430025 11.388979,12.3767725 11.4797402,12.4733283 C10.0954829,14.0494004 9.19575066,16.0670141 9.01831759,18.2867915 C8.91947769,18.3974283 8.76797638,18.4406773 8.53558793,18.432631 C7.80949869,18.408492 7.08031759,18.3974283 6.3562231,18.4366541 C5.85165092,18.4648162 5.58634908,18.3119362 5.35485827,17.8231225 C4.75643307,16.559851 3.40199738,15.9513483 2.10750394,16.2651546 C0.754963255,16.5920362 0.0777454068,17.5324494 4.98687664e-05,19.0963514 C0.0887165354,19.5762136 0.0687690289,20.114311 0.285199475,20.5266846 C1.22682152,22.3210131 3.90676903,22.6197325 4.959,20.9078789 C5.63711549,19.8045278 6.41008136,19.7371399 7.42151969,19.7954757 C7.73260105,19.8134793 8.04777165,19.8255488 8.35596063,19.7923578 C8.66424934,19.7591667 8.88357218,19.7944699 9.0202126,19.9472493 C9.20273228,22.1599862 10.1024646,24.1715651 11.4837297,25.7427089 C10.9311837,26.3430646 10.4075617,26.9094246 9.4929685,26.4427383 C9.40829134,26.3994894 9.2886063,26.4265451 9.24172966,26.4246341 C8.1145958,26.4377094 7.15721522,27.1357273 6.82309449,28.1465457 C6.45506299,29.2579431 6.80713648,30.3934794 7.73070604,31.0774162 C8.56052231,31.6919536 9.81123097,31.710963 10.6550105,31.1226768 C11.5635197,30.4890294 12.0083491,29.3424294 11.6542808,28.3024431 C11.4918084,27.8256989 11.5844646,27.550012 11.9255669,27.2212194 C12.2158031,26.9415093 12.3743858,26.8077393 12.481105,26.728282 C14.080895,28.1063141 16.1196299,28.9803452 18.3517559,29.1070746 C18.3496614,29.9045651 18.3217349,30.7113089 18.3616299,31.5149346 C18.3905538,32.115391 18.2788478,32.4864267 17.6575827,32.7912815 C16.5225696,33.3474831 16.0277717,34.3854578 16.1684016,35.6517468 C16.2991575,36.8134336 16.9434619,37.6422041 18.0424698,38.0404968 C19.5156929,38.5735652 21.0735932,37.881582 21.6720184,36.4673414 C22.2834094,35.0260451 21.7277717,33.4943283 20.3385276,32.7138357 C20.0960656,32.5780541 19.7480814,32.3416936 19.7361129,32.1334952 C19.6751732,31.1186536 19.7061916,30.0976767 19.7080866,29.0929936 C21.9202651,28.9169804 23.9309738,28.0066404 25.4999449,26.6036646 C25.5129108,26.6157341 25.5257769,26.6288094 25.5397402,26.6428904 C26.1143281,27.2161904 26.8623596,27.716973 26.304727,28.7187393 C26.2609423,28.7981967 26.2997402,28.9239204 26.2997402,29.0285225 C26.3077192,30.5211141 27.6222598,31.7160925 29.0655617,31.5511431 C30.5735932,31.3791531 31.6117612,30.0163083 31.3425696,28.5629425 C31.0603123,27.0391715 29.5860919,26.0625499 28.146979,26.5311472 C27.6572677,26.6911683 27.4008425,26.589483 27.080685,26.2536499 C26.53921,25.6853789 26.571126,25.7165583 26.4663018,25.612962 C27.7499239,24.1012604 28.5957979,22.2003183 28.8021549,20.1122994 C28.803252,20.111193 28.803252,20.1102878 28.803252,20.109282 L28.803252,20.1071699 C28.8270892,20.0056857 28.8520236,19.9030952 28.876958,19.7984931 C29.8164856,19.7984931 30.7481339,19.8186089 31.6775879,19.789441 C32.0995774,19.7763657 32.303042,19.9211994 32.4924436,20.3144631 C33.1148058,21.6027788 34.4443071,22.2525188 35.701,21.9528941 C37.0584278,21.6290299 37.9560656,20.515621 37.9702149,19.1385946 C37.9849895,17.7517115 37.0963281,16.5890189 35.7769003,16.2661604" id="Fill-3" fill="#40d9ab" mask="url(#mask-2)"></path>
                                </g>
                            </g>
                        </g>
                    </g>
                </g>
            </g>
        </g>
    </g>
</svg>