<svg width="22" height="22" viewBox="0 0 22 22" fill="none" xmlns="http://www.w3.org/2000/svg">
  <g clip-path="url(#clip0)">
    <path d="M21.6507 9.94348L11.4757 0.190243C11.21 -0.0647163 10.79 -0.0647163 10.5243 0.190243L0.339218 9.95355C0.123703 10.1691 0 10.466 0 10.7695C0 11.4011 0.514282 11.9153 1.14589 11.9153H2.75V20.6236C2.75 21.3826 3.366 21.9986 4.125 21.9986H8.02089C8.40039 21.9986 8.70839 21.6906 8.70839 21.3111V15.3528C8.70839 15.2271 8.81094 15.1236 8.9375 15.1236H13.0625C13.188 15.1236 13.2916 15.2271 13.2916 15.3528V21.3111C13.2916 21.6906 13.5996 21.9986 13.9791 21.9986H17.875C18.634 21.9986 19.25 21.3826 19.25 20.6236V11.9153H20.8541C21.4857 11.9153 22 11.4011 22 10.7695C22 10.466 21.8763 10.1691 21.6507 9.94348Z" fill="#8E8E93"/>
  </g>
  <defs>
    <clipPath id="clip0">
    <rect width="22" height="22" fill="white"/>
    </clipPath>
  </defs>
</svg>
